# xmcd CD database file
# Copyright (C) 1993-1998 Ti Kan
# 
# Track frame offsets:
#     150
#     13725
#     30485
#     45870
#     58287
#     76147
#     90352
#     104695
#     116552
#     131652
# 
# Disc length: 1906 seconds
# 
# Revision: 1
# Processed by: cddbd v1.4b41PL1 Copyright (c) Steve Scherf et al.
# Submitted via: DiscPlay 4.0.4
# 
DISCID=7607700a
DTITLE=Reba McEntire - Whoever's In New England
DYEAR=1900
DGENRE=
TTITLE0=Can't Stop Now
TTITLE1=You Can Take The Wings Off Me
TTITLE2=Whoever's In New England
TTITLE3=I'll Believe It When I Feel It
TTITLE4=I've Seen Better Days
TTITLE5=Little Rock
TTITLE6=If You Only Knew
TTITLE7=One Thin Dime
TTITLE8=Don't Touch Me There
TTITLE9=To Make That Same Mistake Again
EXTD=
EXTT0=
EXTT1=
EXTT2=
EXTT3=
EXTT4=
EXTT5=
EXTT6=
EXTT7=
EXTT8=
EXTT9=
PLAYORDER=
